<svg height="auto" viewBox="0 0 2000 1000" xmlns="http://www.w3.org/2000/svg"><path d="M0 628.046c21 15.092 63 61.317 105 75.46 42 14.144 63 34.979 105-4.742s63-97.3 105-193.862 63-292.422 105-288.947c42 3.475 63 259.07 105 306.323 42 47.253 63-75.639 105-70.059 42 5.58 63 160.088 105 97.958 42-62.13 63-390.819 105-408.607 42-17.788 63 245.504 105 319.667 42 74.162 63 3.278 105 51.145 42 47.866 63 210.572 105 188.187 42-22.385 63-273.016 105-300.112 42-27.096 63 132.956 105 164.633 42 31.678 63-26.846 105-6.243s63 143.225 105 109.257c42-33.968 63-297.173 105-279.096 42 18.077 63 361.985 105 369.48 42 7.496 63-282.9 105-332.002 42-49.102 84 69.195 105 86.493l5 487.021H0Z" fill="#94de1d1a"/><path d="M0 628.046c21 15.092 63 61.317 105 75.46 42 14.144 63 34.979 105-4.742s63-97.3 105-193.862 63-292.422 105-288.947c42 3.475 63 259.07 105 306.323 42 47.253 63-75.639 105-70.059 42 5.58 63 160.088 105 97.958 42-62.13 63-390.819 105-408.607 42-17.788 63 245.504 105 319.667 42 74.162 63 3.278 105 51.145 42 47.866 63 210.572 105 188.187 42-22.385 63-273.016 105-300.112 42-27.096 63 132.956 105 164.633 42 31.678 63-26.846 105-6.243s63 143.225 105 109.257c42-33.968 63-297.173 105-279.096 42 18.077 63 361.985 105 369.48 42 7.496 63-282.9 105-332.002 42-49.102 84 69.195 105 86.493" fill="none" stroke="#94de1d" stroke-width="4"/><g fill="#94de1d"><circle cy="628.046" r="8"/><circle cx="105" cy="703.507" r="8"/><circle cx="210" cy="698.764" r="8"/><circle cx="315" cy="504.902" r="8"/><circle cx="420" cy="215.955" r="8"/><circle cx="525" cy="522.278" r="8"/><circle cx="630" cy="452.219" r="8"/><circle cx="735" cy="550.177" r="8"/><circle cx="840" cy="141.57" r="8"/><circle cx="945" cy="461.237" r="8"/><circle cx="1050" cy="512.382" r="8"/><circle cx="1155" cy="700.569" r="8"/><circle cx="1260" cy="400.457" r="8"/><circle cx="1365" cy="565.09" r="8"/><circle cx="1470" cy="558.847" r="8"/><circle cx="1575" cy="668.104" r="8"/><circle cx="1680" cy="389.008" r="8"/><circle cx="1785" cy="758.489" r="8"/><circle cx="1890" cy="426.486" r="8"/><circle cx="1995" cy="512.979" r="8"/></g></svg>