<svg xmlns="http://www.w3.org/2000/svg" xmlns:xlink="http://www.w3.org/1999/xlink" version="1.1" x="0px" y="0px" viewBox="0 0 64 80" style="enable-background:new 0 0 64 64; fill:#57C236;" xml:space="preserve"><path d="M50.07,34h-7.45c0.527-1.927,0.447-3.933,0.443-4.038c-0.023-0.514-0.432-0.925-0.943-0.953  c-0.21-0.012-5.214-0.251-8.253,2.787c-0.304,0.303-0.559,0.612-0.796,0.927v-4.74c1.671-0.083,4.968-0.542,7.204-2.779  c3.039-3.039,2.799-8.041,2.787-8.253c-0.027-0.509-0.434-0.915-0.942-0.942c-0.21-0.013-5.214-0.251-8.253,2.787  c-0.299,0.299-0.557,0.62-0.796,0.95v-3.284c1.067-0.944,4-3.863,4-7.463c0-4.304-4.204-7.647-4.383-7.787  c-0.363-0.283-0.871-0.283-1.234,0C31.274,1.354,27.07,4.696,27.07,9c0,3.599,2.933,6.518,4,7.463v3.284  c-0.239-0.33-0.497-0.652-0.796-0.95c-3.038-3.038-8.041-2.801-8.253-2.787c-0.509,0.027-0.915,0.434-0.942,0.942  c-0.012,0.212-0.252,5.214,2.787,8.253c2.236,2.236,5.533,2.696,7.204,2.779v4.74c-0.236-0.315-0.492-0.624-0.796-0.927  c-3.038-3.038-8.041-2.8-8.253-2.787c-0.512,0.028-0.92,0.439-0.943,0.953c-0.005,0.105-0.084,2.111,0.442,4.038h-7.45  c-0.553,0-1,0.447-1,1v10c0,7.11,4.391,13.411,11,15.899V62c0,0.553,0.447,1,1,1h14c0.553,0,1-0.447,1-1v-1.101  c6.609-2.488,11-8.789,11-15.899V35C51.07,34.447,50.623,34,50.07,34z M35.28,20.21c1.702-1.702,4.353-2.1,5.767-2.187  c-0.087,1.413-0.484,4.065-2.187,5.767c-1.702,1.702-4.354,2.1-5.767,2.187C33.18,24.563,33.578,21.912,35.28,20.21z M25.28,23.79  c-1.702-1.702-2.1-4.354-2.187-5.767c1.413,0.087,4.064,0.484,5.767,2.187c1.702,1.702,2.1,4.354,2.187,5.767  C29.633,25.89,26.982,25.492,25.28,23.79z M35.28,33.21c1.705-1.705,4.361-2.102,5.772-2.187c-0.037,0.806-0.159,1.978-0.524,2.977  H34.6C34.794,33.731,35.017,33.473,35.28,33.21z M29.07,9c0-2.462,1.967-4.672,3-5.662c1.033,0.99,3,3.2,3,5.662  s-1.967,4.672-3,5.662C31.037,13.672,29.07,11.462,29.07,9z M23.088,31.023c1.411,0.086,4.067,0.482,5.772,2.187  c0.263,0.263,0.486,0.521,0.68,0.79h-5.928C23.247,33.001,23.125,31.829,23.088,31.023z M49.07,45  c0,6.489-4.145,12.213-10.313,14.242c-0.41,0.136-0.687,0.519-0.687,0.95V61h-12v-0.808c0-0.432-0.277-0.815-0.688-0.95  C19.214,57.213,15.07,51.489,15.07,45v-9h7.886h8.229h1.77h8.229h7.886V45z"/><path d="M39.07,44h-3v-3c0-0.553-0.447-1-1-1h-6c-0.553,0-1,0.447-1,1v3h-3c-0.553,0-1,0.447-1,1v6c0,0.553,0.447,1,1,1h3v3  c0,0.553,0.447,1,1,1h6c0.553,0,1-0.447,1-1v-3h3c0.553,0,1-0.447,1-1v-6C40.07,44.447,39.623,44,39.07,44z M38.07,50h-3  c-0.553,0-1,0.447-1,1v3h-4v-3c0-0.553-0.447-1-1-1h-3v-4h3c0.553,0,1-0.447,1-1v-3h4v3c0,0.553,0.447,1,1,1h3V50z"/></svg>