<svg xmlns:dc="http://purl.org/dc/elements/1.1/" xmlns:cc="http://creativecommons.org/ns#" xmlns:rdf="http://www.w3.org/1999/02/22-rdf-syntax-ns#" xmlns:svg="http://www.w3.org/2000/svg" xmlns="http://www.w3.org/2000/svg" xmlns:sodipodi="http://sodipodi.sourceforge.net/DTD/sodipodi-0.dtd" xmlns:inkscape="http://www.inkscape.org/namespaces/inkscape" version="1.1" x="0px" y="0px" viewBox="0 0 100 125"><g transform="translate(0,-952.36218)"><path style="font-size:medium;font-style:normal;font-variant:normal;font-weight:normal;font-stretch:normal;text-indent:0;text-align:start;text-decoration:none;line-height:normal;letter-spacing:normal;word-spacing:normal;text-transform:none;direction:ltr;block-progression:tb;writing-mode:lr-tb;text-anchor:start;baseline-shift:baseline;opacity:1;color:#000000;fill:#000000;fill-opacity:1;stroke:none;stroke-width:3.94028806999999980;marker:none;visibility:visible;display:inline;overflow:visible;enable-background:accumulate;font-family:Sans;-inkscape-font-specification:Sans" d="M 50,6 C 25.723095,6 6,25.72323 6,50 6,74.2769 25.723095,94 50,94 74.276804,94 94,74.2769 94,50 94,43.634441 92.62909,37.589423 90.1875,32.125 l 2.71875,-1.34375 C 93.55665,30.45586 94,29.716586 94,29 94,27.823118 92.992707,27.129571 92.1875,27 l -5,-0.5 C 83.642815,20.902941 78.870269,16.16688 73.25,12.65625 L 73,7.875 C 72.944603,6.8155255 71.926913,6 71,6 70.30325,6 69.521078,6.4820625 69.21875,7.09375 L 67.875,9.8125 C 62.409049,7.3751458 56.36522,6 50,6 z m 0,4 c 5.723894,0 11.146933,1.215425 16.0625,3.375 L 61.125,23.25 C 57.696892,21.818573 53.941669,21 50,21 34.007405,21 21,34.00743 21,50 21,65.9926 34.007405,79 50,79 65.99253,79 79,65.9926 79,50 79,46.044305 78.19172,42.281548 76.75,38.84375 l 9.875,-4.9375 C 88.798092,38.833872 90,44.259649 90,50 90,72.1152 72.115033,90 50,90 27.884866,90 10,72.1152 10,50 10,27.885 27.884866,10 50,10 z M 69.40625,15.65625 70,27.09375 c 0.05524,0.945252 0.869663,1.787758 1.8125,1.875 L 84.90625,30.28125 54.46875,45.5 z M 73.5,17.625 C 76.733969,19.978902 79.600722,22.801494 82,26 L 73.90625,25.1875 z M 50,25 c 3.307717,0 6.457728,0.648813 9.34375,1.8125 l -4.9375,9.90625 C 53.017546,36.252147 51.544198,36 50,36 c -7.708298,0 -14,6.29172 -14,14 0,7.7083 6.291702,14 14,14 7.708269,0 14,-6.2917 14,-14 0,-1.536795 -0.227056,-3.022627 -0.6875,-4.40625 L 73.1875,40.625 C 74.353312,43.519379 75,46.683432 75,50 75,63.8308 63.830795,75 50,75 36.16914,75 25,63.8308 25,50 25,36.16917 36.16914,25 50,25 z m 0,15 c 0.900622,0 1.76541,0.121971 2.59375,0.34375 l -4.375,8.75 c -0.377076,0.745844 -0.220277,1.725855 0.370684,2.316816 0.590961,0.590961 1.570972,0.74776 2.316816,0.370684 l 8.75,-4.375 C 59.873263,48.23388 60,49.099856 60,50 60,55.5465 55.546513,60 50,60 44.453459,60 40,55.5465 40,50 40,44.45348 44.453459,40 50,40 z" transform="translate(0,952.36218)"/></g></svg>