<?xml version="1.0" encoding="utf-8"?>
Svg Vector Icons : http://www.onlinewebfonts.com/icon
<!DOCTYPE svg PUBLIC "-//W3C//DTD SVG 1.1//EN" "http://www.w3.org/Graphics/SVG/1.1/DTD/svg11.dtd">
<svg version="1.1" xmlns="http://www.w3.org/2000/svg" xmlns:xlink="http://www.w3.org/1999/xlink" x="0px" y="0px" viewBox="0 0 256 256" enable-background="new 0 0 256 256" xml:space="preserve">
<metadata> Svg Vector Icons : http://www.onlinewebfonts.com/icon </metadata>
<g><g><g><path fill="#000000" d="M160.1,13.2c-15.1,15.7-21.2,28.4-20.4,42.5c0.2,3.3,1,8,1.8,10.4c0.8,2.4,1.3,4.2,1.1,4.2c-0.2-0.2-2.2-1.1-4.4-2.3c-5.1-2.7-13.3-4.9-21.8-5.9c-9.4-1.1-19.5-1-20.7,0.2c-1.1,1.1-1.2,11.3-0.2,20.7c1.7,14.5,5.6,24.1,13.2,31.9c5.1,5.2,12.9,9.5,19.8,10.9c6.1,1.3,14.9,0.6,19.5-1.4l3.8-1.6l2.9,2.8c2.3,2.3,2.9,3.3,2.9,5.6v2.9l-17.6,0.2l-17.6,0.2l-4.2,2.3c-2.3,1.3-5.3,3.9-6.7,5.7l-2.6,3.3l-20.1,0.4l-20.2,0.4l-5.8,2.9c-5.7,2.8-6.7,3.7-29.3,28C20.5,191.2,10,203.1,10,203.8c0,1.6,46.9,45.4,48.5,45.4c0.7,0,7.2-6.4,14.4-14.2c7.9-8.3,14.2-14.5,15.6-15.1c2-0.8,10-1,38.7-1c21.5,0,37.9-0.3,40.4-0.8c2.3-0.5,6.1-1.7,8.6-3c7.2-3.3,63.4-39.3,65.9-42.2c3-3.3,4.4-8.2,3.7-12.6c-1.1-6.4-9.3-12-16-11c-2.2,0.4-2.5,0.2-3.8-2.6c-1.7-3.9-6.1-8.5-10.3-10.7c-3.1-1.7-4.2-1.7-20.8-2l-17.6-0.2v-2.8c0-2.1,0.6-3.3,2.7-5.5l2.7-2.7l5.4,1.8c4.8,1.7,6.4,1.9,12.3,1.5c19.5-1.1,33.4-14.2,37.9-35.7c1.7-8.3,2.4-26.4,1.1-28c-0.7-0.8-2.5-1.1-7.5-1.1c-13.9,0-27.4,2.6-35.1,6.7c-2.2,1.1-4.2,2.1-4.4,2.3c-0.2,0.1,0.2-1.7,1-4.2c2-5.8,2.6-14.2,1.4-20.1c-1.2-6-5.7-15.5-10.1-21.4c-5-6.7-15.7-17.8-17.3-17.8C166.8,6.9,163.4,9.7,160.1,13.2z M173.6,20.6c6.5,7.4,11.2,14.5,13.6,20.7c1.4,3.7,1.7,6,1.7,12.5c0,9.3-1.6,14.3-6.4,20.3c-2.9,3.6-9.2,8.5-11.1,8.5c-0.8,0-1-2.5-1-11.7c0-9.6-0.2-11.9-1.2-12.9c-0.6-0.7-1.4-1.2-1.8-1.2c-0.4,0-1.2,0.5-1.8,1.2c-1,1-1.2,3.3-1.2,12.9c0,9.2-0.2,11.7-1,11.7c-2,0-8.3-4.8-11.1-8.5c-4.1-5.1-6.1-11.1-6.6-18.8c-0.4-5.6-0.2-7.2,1.6-12.4c1.1-3.3,3.5-8.3,5.3-11.1c3.6-5.5,13.7-17.4,14.8-17.4C167.8,14.4,170.6,17.2,173.6,20.6z M123.6,69.3c18.2,3.9,30.4,16.9,30.5,32.9c0,4.3-1.4,11.4-2.4,11.4c-0.2,0-4.2-3.8-8.8-8.3c-4.5-4.6-8.9-8.3-9.5-8.3c-0.7,0-1.6,0.4-2.1,0.9c-0.5,0.5-0.9,1.4-0.9,2.1c0,0.6,3.8,4.9,8.3,9.5c4.6,4.5,8.3,8.6,8.3,8.8c0,1-7,2.4-11.4,2.4c-12.6-0.2-24.1-8.1-29.8-20.7c-2.6-5.7-4.2-13.9-4.8-24.1l-0.5-8.6l8.6,0.5C114,67.9,120.5,68.6,123.6,69.3z M233.8,76.3c-0.9,16.7-4.6,26.9-12.4,34.7c-6.4,6.5-17.5,10.8-24.8,9.8c-3.9-0.6-8.7-2-8.7-2.5c0-0.2,3.8-4.2,8.3-8.8c4.6-4.5,8.3-8.9,8.3-9.5c0-0.7-0.4-1.6-0.9-2.1c-0.5-0.5-1.4-0.9-2.1-0.9c-0.6,0-4.9,3.7-9.5,8.3c-4.5,4.5-8.6,8.3-8.8,8.3c-0.5,0-1.7-4.4-2.6-8.7c-0.6-3.6,0.9-11,3.5-16.1c6.8-13.9,21.5-20.9,44.1-21.3l6-0.1L233.8,76.3z M164.3,91.8c0.2,2.1-0.2,2.9-2.1,4.2c-1.7,1.2-2.3,1.4-2.6,0.8c-0.6-2.2-2.9-9.4-3.2-10.2c-0.2-0.6,1.3-0.2,3.6,0.9C163.6,89.2,164.1,89.6,164.3,91.8z M177.2,90.9c-0.9,2.7-1.7,5.4-1.8,5.9c-0.2,0.7-0.9,0.5-2.6-0.7c-1.7-1.3-2.3-2.3-2.3-4.2c0-2.3,0.4-2.7,4-4.3c2.1-1,4-1.8,4.1-1.7C178.7,86,178,88.3,177.2,90.9z M169.6,117.6l0.2,15.7h-2.3h-2.3v-15.4c0-8.5,0.2-15.7,0.5-16c0.3-0.3,1.2-0.5,2.1-0.3C169.3,101.9,169.4,102.4,169.6,117.6z M157.6,117.9c0,1.4-0.2,1.8-0.8,1.3c-0.5-0.5-0.6-1.4-0.3-2C157.2,115.4,157.6,115.6,157.6,117.9z M178.3,117.8c0.3,0.6,0.2,1.3-0.2,1.5c-0.5,0.3-0.8-0.2-0.8-1.1C177.3,116.3,177.8,116.2,178.3,117.8z M212.9,141.4c4.3,1.7,7.2,5,8.6,9.8c0.5,1.4-2.1,3.3-24.3,17.5c-13.6,8.8-26,16.5-27.4,17.2c-1.4,0.8-4.2,1.5-6.4,1.7c-5.1,0.5-47.3-2-49.1-2.9c-0.9-0.5-1.4-1.6-1.4-3.3c0-4.5,1.3-4.9,18.4-4.9c13.2,0,15.3-0.2,17.8-1.4c5.3-2.7,9.2-8.6,9.2-13.7c0-5.3-4.1-11.2-9.5-13.7c-2.6-1.2-5.1-1.4-18.1-1.4h-15.1l1.4-1.6c0.8-0.9,2.7-2.3,4.4-3c2.7-1.2,6.6-1.4,45.8-1.4C203,140.3,210.7,140.5,212.9,141.4z M147.4,153.3c4.5,1.9,6.2,7.9,3.8,12.6c-2.1,4.1-4.1,4.5-20.6,4.5c-14.1,0-15.1,0.2-17.9,1.7c-3.3,1.8-5.8,5.8-5.8,9.1c0,3.9,3.6,8.9,7.2,9.8c2.9,0.8,44.7,3,49.4,2.5c2.6-0.2,6.2-1.1,8-1.8c1.7-0.8,14.2-8.5,27.8-17.2c13.6-8.7,26-16.6,27.6-17.6c4.5-2.5,7.6-2.3,10.7,0.8c3.3,3.3,3.6,7.6,0.9,10.5c-1.9,2-58.1,38.1-64.1,41c-2,1-5.1,2.2-6.9,2.6c-2.1,0.5-17.9,0.8-40.5,0.8H89.9l-3.8,1.8c-3,1.3-6.6,4.6-15.5,14.2c-6.4,6.8-11.9,12.5-12.1,12.6c-0.5,0.2-40.5-37.1-40.5-37.9c0-1.1,41.5-45.2,44.4-47.2c5.7-3.9,6.7-4,46-4C138.2,152.2,145.3,152.5,147.4,153.3z"/></g></g></g>
</svg>